<svg width="200" height="200" fill="#000000" xmlns="http://www.w3.org/2000/svg" xmlns:xlink="http://www.w3.org/1999/xlink" version="1.1" x="0px" y="0px" viewBox="0 0 100 100" style="enable-background:new 0 0 100 100;" xml:space="preserve"><g><path d="M23.1,47.4c0,0,0.4-1-0.5-2.6c-0.9-1.7-3-1.2-4.4,0.1c-1.4,1.2-1.4,1.6-1.4,1.6c-4.2,2-7.5,1.9-12.2,4.2   c-4.7,2.3-2.4,7.6,2.9,9.8c4.2,1.8,12.6-5,15.7-7.8c-0.7,0.9-2,2.5-3.5,3.8c-1.1,0.9-3.1,2.2-3.1,2.2s3.6-0.4,7.3-3.2   c1.1-0.9,1-2.6,0.6-4C26.2,48.4,23.1,47.4,23.1,47.4z"/><path d="M92.5,47.4c-4.7-3.7-12.3-6.9-14.1-7.6c-0.9-0.4-1.5-0.8-2.8-1.8c-2-1.6-3.3-2.9-5.5-4.3C57.7,25.7,49,33.9,45,36.6   c-4.4,3-8.1,1.2-14.3,1.8c-4.4,0.4-9.9,4.3-9.9,4.3c3.8-1.1,3.9,3.8,3.9,3.8c2.5,1.8,1,4.8,1,4.8c0.5,1.8-0.6,4.2-0.6,4.2   c0.7,1.4,6.5,3.7,6.5,3.7c4.8-0.7,7.3-5.3,7.3-5.3c0.4,2-1.6,4.8-4.1,5.3c-2.5,0.5-5,5.1-5,5.1c1.6,0.1,1.3,3,1.3,3   c2.8-0.7,2.8,1.8,2.8,1.8c1.3-0.4,3.4,0.5,3.4,0.5c0.7-1.4,0.4-3.9,1.5-5.3c1.1-1.4,5.3-3.1,5.3-3.1c6.6-3.4,4.7-10.9,4.7-10.9   s1.2,1.9,1.6,4.2c0.4,2.3-2.1,4.6-2.1,4.6C56.4,60,63.7,55,63.7,55c0.4-1,0.8-3.2,0.8-3.2c-1.2-1.9-1.3-6-1.3-6s0,0,0.8,2.5   c0.8,2.5,2.5,4.4,1.8,6c-0.7,1.6-1.1,2.1-1.1,2.1c-2.5,0-5.6,2.6-5.6,2.6c2.3,0.1,3.4,3.6,3.4,3.6c2.3-0.5,4,1.5,4,1.5   c2.3-0.7,3.4,0.4,3.4,0.4l0.1-1.3c0.3-0.8,0.4-1.6,0.4-2.3c0.1-1.3,0.8-2.4,1.9-3c0.5-0.3,1.1-0.6,1.9-0.9c3-1,3.7-2.6,3.7-3.8   c0-0.6-0.1-1.1-0.3-1.6c0-0.1-0.1-0.1-0.1-0.1c0,0,0,0,0,0c-0.3-0.8-0.8-1.5-1.4-2.2c-1.3-1.6-1-4.9-1-5.6c0-0.1,0-0.1,0-0.1   s0,0,0,0.1c0,0.4,0,2,2,4.9c0.6,0.9,1.1,1.8,1.4,2.6c4.1-0.7,7.9,1.8,10.1,2.2c3.1,0.6,6.5,0.1,8.4-1.1S97.2,51.1,92.5,47.4z    M29.4,47.5c-0.6,0-1-0.5-1-1.1c0-0.6,0.5-1,1.1-1c0.6,0,1,0.5,1,1.1C30.5,47.1,30,47.5,29.4,47.5z"/></g></svg>